<?xml version="1.0" encoding="UTF-8" standalone="no"?>
<!-- Created with Inkscape (http://www.inkscape.org/) -->

<svg
   xmlns:dc="http://purl.org/dc/elements/1.1/"
   xmlns:cc="http://creativecommons.org/ns#"
   xmlns:rdf="http://www.w3.org/1999/02/22-rdf-syntax-ns#"
   xmlns:svg="http://www.w3.org/2000/svg"
   xmlns="http://www.w3.org/2000/svg"
   xmlns:sodipodi="http://sodipodi.sourceforge.net/DTD/sodipodi-0.dtd"
   xmlns:inkscape="http://www.inkscape.org/namespaces/inkscape"
   width="512"
   height="512"
   viewBox="0 0 135.46667 135.46667"
   version="1.1"
   id="svg8"
   inkscape:version="0.92.5 (2060ec1f9f, 2020-04-08)"
   sodipodi:docname="logo.svg">
  <defs
     id="defs2" />
  <sodipodi:namedview
     id="base"
     pagecolor="#ffffff"
     bordercolor="#666666"
     borderopacity="1.0"
     inkscape:pageopacity="0.0"
     inkscape:pageshadow="2"
     inkscape:zoom="0.49497475"
     inkscape:cx="240.39952"
     inkscape:cy="227.48555"
     inkscape:document-units="px"
     inkscape:current-layer="layer1"
     showgrid="false"
     inkscape:window-width="1364"
     inkscape:window-height="699"
     inkscape:window-x="0"
     inkscape:window-y="0"
     inkscape:window-maximized="1"
     units="px"
     width="512px" />
  <metadata
     id="metadata5">
    <rdf:RDF>
      <cc:Work
         rdf:about="">
        <dc:format>image/svg+xml</dc:format>
        <dc:type
           rdf:resource="http://purl.org/dc/dcmitype/StillImage" />
        <dc:title />
      </cc:Work>
    </rdf:RDF>
  </metadata>
  <g
     inkscape:label="Layer 1"
     inkscape:groupmode="layer"
     id="layer1"
     transform="translate(0,-161.53333)">
    <path
       style="fill:#18a558;fill-opacity:1;stroke:none;stroke-width:0.22920826px;stroke-linecap:butt;stroke-linejoin:miter;stroke-opacity:1"
       d="m 58.51998,172.57459 c 4.890914,3.80289 7.637249,7.14348 11.012169,12.96325 -2.981924,3.90199 -7.650707,7.11691 -10.974116,9.38993 26.800411,1.50873 29.080848,18.22446 29.355413,31.953 -1.729405,0.61411 -1.775861,-0.28916 -3.09173,-1.20035 -0.588268,2.39724 2.044877,16.87292 3.373018,20.41674 13.695196,-3.93599 21.091176,-15.37205 25.495876,-21.88157 l -2.19043,0.59191 c 0.63236,-14.36433 -11.929314,-51.03435 -52.9802,-52.23291 z m -30.964605,0.0184 0.0479,105.96317 17.164653,-5.37718 c 1.045676,-4.90979 3.952944,-13.29193 10.436141,-16.19168 l 0.347397,-62.17543 c 3.547743,-3.17062 8.866409,-5.87693 11.209236,-9.53415 -3.384959,-6.26992 -6.828557,-9.47279 -11.209236,-12.68473 z m 10.58611,38.08573 h 3.589438 v 2.9627 c 0.98759,0.0949 1.832907,0.2376 2.535617,0.42752 0.721701,0.18993 1.291384,0.37997 1.709212,0.56989 l -0.883258,3.41843 c -0.62674,-0.2659 -1.35794,-0.49368 -2.193594,-0.6836 -0.816663,-0.18992 -1.680849,-0.28517 -2.592472,-0.28517 -0.911621,0 -1.566893,0.15186 -1.965729,0.45574 -0.398834,0.30387 -0.59809,0.70282 -0.59809,1.19662 0,0.30388 0.05705,0.56985 0.17101,0.79775 0.132946,0.20892 0.332203,0.39896 0.59809,0.56989 0.26589,0.17093 0.588921,0.34166 0.968765,0.51259 0.398833,0.15193 0.873274,0.32311 1.424045,0.51303 0.835655,0.30387 1.605043,0.63611 2.307752,0.99696 0.721701,0.36085 1.338785,0.77868 1.851571,1.25348 0.53178,0.45582 0.940399,0.99698 1.225282,1.62372 0.303873,0.62674 0.45573,1.35794 0.45573,2.19359 0,0.56976 -0.08559,1.13945 -0.256516,1.70921 -0.17093,0.55077 -0.455774,1.06385 -0.854608,1.53866 -0.398833,0.4748 -0.921122,0.88296 -1.566854,1.22483 -0.62674,0.34185 -1.40534,0.58895 -2.335953,0.74089 v 3.47528 h -3.589438 v -3.39022 c -1.386426,-0.11396 -2.516588,-0.32242 -3.390222,-0.62629 -0.854647,-0.32287 -1.49105,-0.58885 -1.908877,-0.79776 l 1.225279,-3.27607 c 0.664725,0.32287 1.452984,0.61692 2.364606,0.88281 0.930614,0.2659 1.908472,0.39888 2.934045,0.39888 1.15852,0 1.946778,-0.15185 2.364607,-0.45573 0.436819,-0.32286 0.655391,-0.76922 0.655391,-1.33899 0,-0.36085 -0.08558,-0.66456 -0.256516,-0.91146 -0.17093,-0.26589 -0.418032,-0.50333 -0.740897,-0.71224 -0.322867,-0.20892 -0.731037,-0.40863 -1.224832,-0.59855 -0.493795,-0.20891 -1.063481,-0.42703 -1.709213,-0.65494 -0.62674,-0.22791 -1.244273,-0.475 -1.852022,-0.7409 -0.588755,-0.28488 -1.129911,-0.62678 -1.623706,-1.02562 -0.474805,-0.39883 -0.864103,-0.88293 -1.167978,-1.45269 -0.284881,-0.58876 -0.427527,-1.29143 -0.427527,-2.10809 0,-0.62674 0.08558,-1.22496 0.256517,-1.79472 0.189921,-0.58876 0.474763,-1.1207 0.854604,-1.59551 0.379845,-0.4748 0.873602,-0.87376 1.481348,-1.19662 0.607751,-0.34186 1.329738,-0.58852 2.165393,-0.74046 z m 76.696355,18.00868 c -16.418172,22.64047 -29.931821,20.76315 -51.722237,28.17975 -9.553715,4.06461 -17.022947,12.60874 -12.843985,16.16652 1.221652,1.04006 27.411411,-4.77141 31.783396,-5.86854 -17.655269,5.20353 -35.78508,10.17052 -54.488,16.54239 l 3.681211,3.16191 23.741411,-7.55761 c 21.251015,6.64463 41.957211,-11.6973 48.461554,-22.90211 6.51452,-10.15251 5.16708,-17.02771 11.38665,-27.72231 z"
       id="path819"
       inkscape:connector-curvature="0"
       sodipodi:nodetypes="ccccccccccccccccccccccccscscccccccscscccccccccscscccccccscscccccscccccc" />
    <path
       style="fill:#116530;fill-opacity:1;stroke:none;stroke-width:0.26458335px;stroke-linecap:butt;stroke-linejoin:miter;stroke-opacity:1"
       d="m 69.53215,185.53784 c 18.117823,8.63467 25.465332,21.7574 18.381296,41.34293 0,0 1.164306,-11.63793 -5.594431,-22.15558 -9.050511,-10.05904 -23.760983,-9.79742 -23.760983,-9.79742 4.304469,-2.4683 7.755867,-5.62923 10.974118,-9.38993 z"
       id="path816"
       inkscape:connector-curvature="0"
       sodipodi:nodetypes="ccccc" />
    <path
       style="fill:#116530;stroke:none;stroke-width:0.26458335px;stroke-linecap:butt;stroke-linejoin:miter;stroke-opacity:1;fill-opacity:1"
       d="M 66.760703,185.27772 C 53.804622,176.07018 43.471583,174.06979 27.555376,172.59299 h 27.99609 c 5.283749,3.9826 8.128703,6.79556 11.209237,12.68473 z"
       id="path818"
       inkscape:connector-curvature="0"
       sodipodi:nodetypes="cccc" />
    <path
       style="fill:#116530;fill-opacity:1;stroke:none;stroke-width:0.26458335px;stroke-linecap:butt;stroke-linejoin:miter;stroke-opacity:1"
       d="m 105.78192,203.19821 c 7.37723,29.27233 -10.286679,36.17141 -17.587186,42.89895 11.773614,-4.11299 18.831176,-11.36243 25.495876,-21.88157 l -2.19043,0.59191 c 0.004,-7.05016 -2.98381,-20.4297 -5.71826,-21.60929 z"
       id="path820"
       inkscape:connector-curvature="0"
       sodipodi:nodetypes="ccccc" />
    <path
       style="fill:#116530;fill-opacity:1;stroke:none;stroke-width:0.26458335px;stroke-linecap:butt;stroke-linejoin:miter;stroke-opacity:1"
       d="m 27.567015,283.70752 54.487999,-16.54239 c 14.760938,-10.08403 24.458086,-22.7035 32.782826,-38.47773 -3.51101,20.76011 -26.615284,60.33702 -59.848204,50.62442 l -23.741412,7.55761 z"
       id="path822"
       inkscape:connector-curvature="0"
       sodipodi:nodetypes="cccccc" />
    <path
       style="fill:#116530;fill-opacity:1;stroke:none;stroke-width:0.26458335px;stroke-linecap:butt;stroke-linejoin:miter;stroke-opacity:1"
       d="m 27.480125,239.61533 c 1.176433,15.03607 6.71922,27.19503 17.287802,33.56365 l -17.164651,5.37718 z"
       id="path824"
       inkscape:connector-curvature="0"
       sodipodi:nodetypes="cccc" />
  </g>
</svg>
